<svg width="685" height="190" viewBox="0 0 685 190" fill="none" xmlns="http://www.w3.org/2000/svg">
<g clip-path="url(#clip0)">
<path d="M70.6105 118.439L66.7623 122.287C66.4045 122.661 65.9756 122.959 65.5009 123.165C65.0261 123.371 64.5151 123.48 63.9976 123.486C63.4802 123.491 62.9668 123.394 62.4876 123.198C62.0084 123.003 61.573 122.714 61.207 122.348C60.841 121.983 60.5516 121.548 60.356 121.068C60.1603 120.589 60.0623 120.076 60.0676 119.559C60.073 119.041 60.1816 118.53 60.3871 118.055C60.5926 117.58 60.8908 117.151 61.2643 116.793L65.1125 112.941C65.8416 112.211 66.8304 111.802 67.8615 111.802C68.8926 111.802 69.8814 112.211 70.6105 112.941C71.3396 113.67 71.7492 114.658 71.7492 115.69C71.7492 116.721 71.3396 117.709 70.6105 118.439ZM45.8716 115.692C45.5106 115.331 45.0821 115.044 44.6104 114.849C44.1387 114.653 43.6332 114.553 43.1226 114.553C42.612 114.553 42.1065 114.653 41.6348 114.849C41.1631 115.044 40.7345 115.331 40.3736 115.692L36.5254 119.54C36.1644 119.901 35.878 120.329 35.6827 120.801C35.4873 121.273 35.3867 121.778 35.3867 122.289C35.3867 122.799 35.4873 123.305 35.6827 123.777C35.878 124.248 36.1644 124.677 36.5254 125.038C37.2545 125.767 38.2433 126.177 39.2744 126.177C39.7849 126.177 40.2905 126.076 40.7622 125.881C41.2338 125.685 41.6624 125.399 42.0234 125.038L45.8716 121.19C46.2327 120.829 46.5191 120.4 46.7145 119.929C46.91 119.457 47.0105 118.951 47.0105 118.441C47.0105 117.93 46.91 117.425 46.7145 116.953C46.5191 116.481 46.2327 116.053 45.8716 115.692ZM93.8119 95.2156C93.9544 95.0817 94.097 94.9391 94.2438 94.7837C97.7389 91.1095 99.6595 86.2148 99.5957 81.1441C99.532 76.0735 97.489 71.2287 93.9026 67.6435C90.3163 64.0583 85.4708 62.0168 80.4002 61.9546C75.3296 61.8925 70.4354 63.8146 66.7623 67.3108C66.5075 67.57 66.257 67.8334 66.0195 68.1012C65.8956 68.1964 65.7773 68.2988 65.6653 68.4078L44.7703 89.3029C44.0412 90.032 43.6316 91.0209 43.6316 92.0519C43.6316 93.083 44.0412 94.0719 44.7703 94.8009C45.4993 95.53 46.4882 95.9396 47.5193 95.9396C48.5504 95.9396 49.5392 95.53 50.2683 94.8009L59.066 86.0032C59.4269 85.6422 59.8555 85.3557 60.3272 85.1603C60.7989 84.9649 61.3044 84.8643 61.815 84.8643C62.3256 84.8643 62.8311 84.9649 63.3028 85.1603C63.7745 85.3557 64.203 85.6422 64.564 86.0032C64.9251 86.3642 65.2115 86.7928 65.4069 87.2645C65.6024 87.7361 65.7029 88.2417 65.7029 88.7523C65.7029 89.2628 65.6024 89.7684 65.4069 90.2401C65.2115 90.7117 64.9251 91.1403 64.564 91.5013L64.2919 91.7777L48.6228 107.447C48.2409 107.803 47.9346 108.232 47.7221 108.709C47.5097 109.185 47.3954 109.7 47.3862 110.222C47.377 110.744 47.473 111.262 47.6685 111.746C47.864 112.23 48.155 112.67 48.5241 113.039C48.8932 113.408 49.3329 113.699 49.8169 113.895C50.3009 114.09 50.8193 114.186 51.3412 114.177C51.8631 114.168 52.3779 114.054 52.8547 113.841C53.3315 113.629 53.7606 113.322 54.1165 112.941L70.062 96.9993C70.7911 96.2702 71.78 95.8606 72.811 95.8606C73.8421 95.8606 74.831 96.2702 75.56 96.9993C76.2891 97.7284 76.6987 98.7172 76.6987 99.7483C76.6987 100.779 76.2891 101.768 75.56 102.497L73.3617 104.696C73.0007 105.057 72.7143 105.485 72.519 105.957C72.3236 106.429 72.223 106.934 72.223 107.445C72.223 107.955 72.3236 108.461 72.519 108.932C72.7143 109.404 73.0007 109.833 73.3617 110.194C74.0908 110.923 75.0796 111.332 76.1107 111.332C76.6212 111.332 77.1268 111.232 77.5985 111.036C78.0701 110.841 78.4987 110.555 78.8597 110.194L93.7039 95.3495C93.7471 95.3063 93.7817 95.2588 93.8249 95.2156" fill="#EE3E25"/>
<path d="M118.95 42.6102C110.547 34.2044 99.6052 28.8065 87.8214 27.254C76.0376 25.7015 64.0708 28.0811 53.7774 34.0236C43.4839 39.9662 35.4393 49.1396 30.8913 60.1207C26.3434 71.1018 25.5464 83.2768 28.6239 94.7572L61.612 61.7777L61.6855 61.7086C66.7478 56.6456 73.614 53.8011 80.7737 53.8007C87.9333 53.8003 94.7999 56.6441 99.8628 61.7064C104.926 66.7688 107.77 73.635 107.771 80.7946C107.771 87.9543 104.927 94.8208 99.865 99.8837L99.7872 99.9572L66.8034 132.937C78.2837 136.014 90.4588 135.217 101.44 130.669C112.421 126.121 121.594 118.077 127.537 107.783C133.479 97.4898 135.859 85.523 134.307 73.7392C132.754 61.9553 127.356 51.0132 118.95 42.6102Z" fill="#26265E"/>
</g>
<g clip-path="url(#clip1)">
<path d="M17.5833 120.936C17.984 118.865 19.9873 117.51 22.0584 117.911C24.13 118.311 25.4843 120.315 25.084 122.386L19.7513 149.974L46.0387 141.137C47.0292 140.804 48.1146 140.891 49.0395 141.38C60.2092 147.277 72.7995 149.948 85.4491 149.103C123.059 146.592 151.614 113.951 149.103 76.3404C146.592 38.7301 113.951 10.1747 76.3399 12.686C38.7291 15.1973 10.1742 47.8383 12.6855 85.4491C12.9884 89.9846 13.7404 94.4896 14.9204 98.8379C15.4729 100.874 14.2705 102.972 12.2346 103.525C10.1984 104.076 8.0999 102.875 7.54747 100.839C6.23538 96.0039 5.3993 90.9972 5.06287 85.9586C2.2714 44.1441 34.0175 7.85526 75.8309 5.06334C117.644 2.27141 153.934 34.0175 156.726 75.8314C159.518 117.645 127.772 153.934 85.9576 156.726C72.4471 157.628 58.9954 154.922 46.9445 148.892L15.9743 159.304C14.6852 159.737 13.2646 159.453 12.2421 158.558C11.2197 157.664 10.7489 156.293 11.0069 154.959L17.5833 120.936Z" fill="#26265E"/>
</g>
<path d="M194.722 140.895H180.806V73.3554H194.722V140.895ZM225.848 73.3554L243.196 122.34L260.452 73.3554H278.728V140.895H264.766V122.433L266.158 90.5649L247.928 140.895H238.372L220.188 90.6113L221.58 122.433V140.895H207.664V73.3554H225.848ZM304.798 117.098V140.895H290.882V73.3554H317.229C322.301 73.3554 326.754 74.2832 330.589 76.1386C334.454 77.9941 337.423 80.6382 339.495 84.0708C341.567 87.4725 342.603 91.3535 342.603 95.7138C342.603 102.332 340.33 107.558 335.784 111.393C331.269 115.196 325.007 117.098 316.997 117.098H304.798ZM304.798 105.826H317.229C320.909 105.826 323.708 104.96 325.625 103.228C327.574 101.497 328.548 99.0228 328.548 95.8066C328.548 92.4977 327.574 89.8227 325.625 87.7817C323.677 85.7407 320.987 84.6893 317.554 84.6274H304.798V105.826ZM403.323 73.3554V117.84C403.323 125.231 401.004 131.076 396.365 135.374C391.757 139.673 385.449 141.822 377.439 141.822C369.554 141.822 363.291 139.735 358.653 135.56C354.014 131.385 351.648 125.649 351.556 118.351V73.3554H365.472V117.933C365.472 122.355 366.523 125.587 368.626 127.628C370.76 129.638 373.698 130.643 377.439 130.643C385.263 130.643 389.237 126.53 389.361 118.304V73.3554H403.323ZM428.65 129.715H458.199V140.895H414.734V73.3554H428.65V129.715ZM501.246 123.175C501.246 120.546 500.318 118.536 498.462 117.145C496.607 115.722 493.267 114.238 488.443 112.691C483.619 111.114 479.799 109.568 476.985 108.053C469.316 103.909 465.481 98.327 465.481 91.3071C465.481 87.658 466.502 84.4109 468.543 81.5659C470.615 78.6899 473.568 76.4479 477.403 74.8398C481.268 73.2317 485.598 72.4277 490.391 72.4277C495.215 72.4277 499.514 73.3091 503.287 75.0717C507.059 76.8035 509.982 79.262 512.054 82.4472C514.157 85.6325 515.208 89.2506 515.208 93.3017H501.292C501.292 90.2093 500.318 87.8126 498.37 86.1118C496.421 84.38 493.685 83.5141 490.159 83.5141C486.757 83.5141 484.113 84.2409 482.227 85.6943C480.341 87.1168 479.397 89.0032 479.397 91.3535C479.397 93.5491 480.495 95.3891 482.691 96.8735C484.917 98.3579 488.18 99.7495 492.478 101.048C500.395 103.429 506.163 106.383 509.781 109.908C513.399 113.434 515.208 117.825 515.208 123.082C515.208 128.927 512.997 133.519 508.575 136.859C504.152 140.168 498.199 141.822 490.716 141.822C485.52 141.822 480.789 140.879 476.521 138.993C472.254 137.075 468.991 134.462 466.734 131.153C464.507 127.844 463.394 124.01 463.394 119.649H477.356C477.356 127.102 481.81 130.829 490.716 130.829C494.025 130.829 496.607 130.164 498.462 128.834C500.318 127.473 501.246 125.587 501.246 123.175ZM565.306 111.624H538.587V129.715H569.944V140.895H524.671V73.3554H569.852V84.6274H538.587V100.724H565.306V111.624ZM603.111 116.17H592.024V140.895H578.108V73.3554H603.204C611.182 73.3554 617.336 75.1336 621.665 78.6899C625.995 82.2462 628.16 87.2715 628.16 93.7656C628.16 98.3733 627.155 102.223 625.144 105.316C623.165 108.377 620.15 110.82 616.099 112.645L630.711 140.245V140.895H615.774L603.111 116.17ZM592.024 104.898H603.25C606.744 104.898 609.45 104.017 611.368 102.254C613.285 100.461 614.244 98.0022 614.244 94.8789C614.244 91.6937 613.331 89.1888 611.507 87.3642C609.713 85.5397 606.945 84.6274 603.204 84.6274H592.024V104.898Z" fill="#26265E"/>
<path d="M197.625 41.1962H182.708V56.8945H178.02V21.3476H200.042V25.205H182.708V37.3632H197.625V41.1962ZM221.136 47.6171H206.243L202.898 56.8945H198.064L211.639 21.3476H215.74L229.339 56.8945H224.529L221.136 47.6171ZM207.659 43.7597H219.744L213.689 27.1337L207.659 43.7597ZM238.836 53.0615H255.682V56.8945H234.124V21.3476H238.836V53.0615ZM281.145 47.6171H266.253L262.908 56.8945H258.074L271.648 21.3476H275.75L289.349 56.8945H284.539L281.145 47.6171ZM267.669 43.7597H279.754L273.699 27.1337L267.669 43.7597Z" fill="#EE3E25"/>
<defs>
<clipPath id="clip0">
<rect width="107.974" height="107.974" fill="white" transform="translate(26.7948 26.7948)"/>
</clipPath>
<clipPath id="clip1">
<rect width="152" height="152" fill="white" transform="matrix(-0.997778 0.0666227 0.0666227 0.997778 151.662 0)"/>
</clipPath>
</defs>
</svg>
